# xmcd
#
# Track frame offsets: 
#        150
#        11305
#        22224
#        33694
#        37689
#        46478
#        51116
#        55938
#        66206
#        77056
#
# Disc length: 1217 seconds
#
# Revision: 0
# Processed by: cddbd v1.5.2PL0 Copyright (c) Steve Scherf et al.
# Submitted via: ExactAudioCopy v1.0b1
#
DISCID=7c04bf0a
DTITLE=The Puny Pickers - Just Kiddin' Around
DYEAR=2001
DGENRE=Bluegrass
TTITLE0=Foggy Mountain Breakdown
TTITLE1=Shenandoah Breakdown
TTITLE2=Kentucky Waltz
TTITLE3=Little Maggie
TTITLE4=Jerusalem Ridge
TTITLE5=Ragtime Annie
TTITLE6=Devil's Dream
TTITLE7=Orange Blossom Special
TTITLE8=Liberty
TTITLE9=Florida Blues
EXTD=
EXTT0=
EXTT1=
EXTT2=
EXTT3=
EXTT4=
EXTT5=
EXTT6=
EXTT7=
EXTT8=
EXTT9=
PLAYORDER=
